<?xml version="1.0" encoding="utf-8"?>
<!-- Generator: Adobe Illustrator 16.0.0, SVG Export Plug-In . SVG Version: 6.00 Build 0)  -->
<!DOCTYPE svg PUBLIC "-//W3C//DTD SVG 1.1//EN" "http://www.w3.org/Graphics/SVG/1.1/DTD/svg11.dtd">
<svg version="1.1" id="Layer_1" xmlns="http://www.w3.org/2000/svg" xmlns:xlink="http://www.w3.org/1999/xlink" x="0px" y="0px"
	 width="500px" height="500px" viewBox="0 0 500 500" enable-background="new 0 0 500 500" xml:space="preserve">
<g id="icon">
	<path fill="#858EC0" d="M249.954-0.012c138.044,0,249.954,111.906,249.954,249.954c0,138.035-111.909,249.963-249.954,249.963
		C111.905,499.905,0,387.977,0,249.942C0,111.895,111.905-0.012,249.954-0.012z"/>
	<path fill="#FFFFFF" d="M358.463,169.046c0,0-30.932-24.21-67.458-26.984l-3.307,6.579c33.041,8.089,48.176,19.672,64.019,33.897
		c-27.293-13.937-54.231-26.984-101.187-26.984c-46.956,0-73.917,13.047-101.188,26.984c15.798-14.225,33.84-27.083,63.997-33.897
		l-3.285-6.579c-38.345,3.618-67.458,26.984-67.458,26.984s-34.55,50.085-40.476,148.408c34.816,40.167,87.696,40.476,87.696,40.476
		l11.052-14.732c-18.775-6.523-39.965-18.174-58.272-39.235c21.835,16.533,54.811,33.73,107.934,33.73
		c53.124,0,86.075-17.197,107.933-33.73c-18.328,21.062-39.52,32.712-58.271,39.235l11.051,14.732c0,0,52.857-0.309,87.696-40.476
		C392.992,219.131,358.463,169.046,358.463,169.046z M206.681,290.47c-13.049,0-23.611-12.07-23.611-26.98
		c0-14.903,10.562-26.984,23.611-26.984c13.049,0,23.611,12.081,23.611,26.984C230.292,278.399,219.73,290.47,206.681,290.47z
		 M294.378,290.47c-13.047,0-23.611-12.07-23.611-26.98c0-14.903,10.564-26.984,23.611-26.984s23.611,12.081,23.611,26.984
		C317.989,278.399,307.404,290.47,294.378,290.47z"/>
	<path opacity="0.1" fill="#221E1F" enable-background="new    " d="M73.205,426.742c45.248,45.224,107.735,73.205,176.749,73.205
		c138.044,0,249.954-111.905,249.954-249.95c0-69.023-27.981-131.512-73.209-176.748L73.205,426.742z"/>
</g>
<g id="Icons" display="none">
	<g id="Icons_13_" display="inline">
		<g>
			<path fill="#4B92CD" d="M249.798,0C111.872,0,0,111.872,0,249.961c0,137.926,111.872,249.798,249.798,249.798
				c137.925,0,249.799-111.872,249.799-249.798C499.597,111.872,387.725,0,249.798,0z M383.001,181.73
				c0,0-0.488,30.614-5.047,49.829c-4.561,19.053-19.868,72.302-65.464,109.756c-45.594,37.451-101.286,45.595-132.877,43.479
				c-31.428-2.119-70.184-14.167-95.098-29.638c0,0,57.157,6.188,99.333-28.661c0,0-42.664,1.954-62.857-47.061
				c0,0,14.493,2.604,30.289-1.792c0,0-53.738-9.771-54.389-67.578c0,0,17.587,8.631,30.614,7.816c0,0-51.295-39.245-20.029-89.888
				c0,0,51.293,68.067,140.531,70.673c-21.658-59.763,75.396-116.429,115.291-62.042c0,0,15.471-0.489,43.805-15.796
				c0,0-6.84,21.495-28.499,35.826c0,0,16.286-0.164,36.315-8.793C413.452,150.139,401.239,168.866,383.001,181.73z"/>
		</g>
	</g>
</g>
</svg>
