<?xml version="1.0" encoding="utf-8"?>
<!-- Generator: Adobe Illustrator 16.0.0, SVG Export Plug-In . SVG Version: 6.00 Build 0)  -->
<!DOCTYPE svg PUBLIC "-//W3C//DTD SVG 1.1//EN" "http://www.w3.org/Graphics/SVG/1.1/DTD/svg11.dtd">
<svg version="1.1" id="Layer_1" xmlns="http://www.w3.org/2000/svg" xmlns:xlink="http://www.w3.org/1999/xlink" x="0px" y="0px"
	 width="500px" height="500px" viewBox="0 0 500 500" enable-background="new 0 0 500 500" xml:space="preserve">
<g>
	<polygon fill="#FFFFFF" points="343.75,93.75 218.75,93.75 93.75,93.75 93.75,250 93.75,406.25 125,406.25 156.25,406.25 
		156.25,281.25 156.25,156.25 250,156.25 343.75,156.25 343.75,125 	"/>
	<polygon fill="#FFFFFF" points="343.75,156.25 343.75,281.25 343.75,406.25 375,406.25 406.25,406.25 406.25,281.25 406.25,156.25 
		375,156.25 	"/>
	<path fill="#030104" d="M250,0C111.929,0,0,111.929,0,250s111.929,250,250,250s250-111.929,250-250S388.071,0,250,0z
		 M406.25,281.25v125H375h-31.25v-125v-125H250h-93.75v125v125H125H93.75V250V93.75h125h125V125v31.25H375h31.25V281.25z"/>
</g>
</svg>
